<?xml version="1.0" encoding="utf-8"?>
<!-- Generator: Adobe Illustrator 22.1.0, SVG Export Plug-In . SVG Version: 6.00 Build 0)  -->
<svg version="1.1" id="Layer_1" xmlns="http://www.w3.org/2000/svg" xmlns:xlink="http://www.w3.org/1999/xlink" x="0px" y="0px"
	 viewBox="0 0 32 32" style="enable-background:new 0 0 32 32;" xml:space="preserve">
<style type="text/css">
	.st0{fill-rule:evenodd;clip-rule:evenodd;fill:#727270;}
</style>
<path class="st0" d="M16,22.7c3.7,0,6.7-3,6.7-6.7c0-3.7-3-6.7-6.7-6.7s-6.7,3-6.7,6.7C9.3,19.7,12.3,22.7,16,22.7L16,22.7z
	 M0.6,13.3l3.9-0.7C4.7,11.8,5,11,5.4,10.3L3.2,7C3,6.7,3,6.3,3.3,6L6,3.3C6.3,3.1,6.7,3,7,3.2l3.3,2.2C11,5,11.8,4.8,12.6,4.5
	l0.7-3.9C13.4,0.3,13.7,0,14.1,0H18c0.3,0,0.7,0.3,0.8,0.6l0.7,3.9c0.8,0.2,1.5,0.6,2.2,0.9L25,3.2c0.3-0.2,0.8-0.1,1,0.1l2.8,2.8
	c0.2,0.2,0.3,0.7,0.1,1l-2.2,3.3c0.3,0.6,0.7,1.4,0.9,2.2l3.9,0.7c0.3,0.1,0.6,0.5,0.6,0.8v3.9c0,0.4-0.3,0.7-0.6,0.8l-3.9,0.7
	c-0.2,0.8-0.5,1.6-0.9,2.3l2.2,3.2c0.2,0.3,0.1,0.8-0.1,1l-2.8,2.7c-0.2,0.3-0.7,0.3-1,0.1l-3.2-2.2c-0.7,0.3-1.4,0.6-2.2,0.9
	l-0.7,3.9c0,0.3-0.4,0.6-0.8,0.6h-3.9c-0.3,0-0.7-0.3-0.8-0.6l-0.7-3.8c-0.8-0.2-1.6-0.6-2.2-0.9L7,28.8c-0.3,0.2-0.7,0.1-1-0.1
	L3.3,26c-0.2-0.2-0.3-0.7-0.1-1.1l2.2-3.2C5,21,4.7,20.2,4.5,19.4l-3.9-0.7C0.3,18.7,0,18.3,0,17.9v-3.9C0,13.7,0.2,13.3,0.6,13.3
	L0.6,13.3z M13.2,16c0-1.5,1.3-2.8,2.8-2.8c1.6,0,2.8,1.3,2.8,2.8c0,1.6-1.3,2.8-2.8,2.8C14.5,18.8,13.2,17.6,13.2,16L13.2,16z"/>
</svg>
