<?xml version="1.0" encoding="utf-8"?>
<!-- Generator: Adobe Illustrator 27.0.1, SVG Export Plug-In . SVG Version: 6.00 Build 0)  -->
<svg version="1.1" id="Capa_1" xmlns="http://www.w3.org/2000/svg" xmlns:xlink="http://www.w3.org/1999/xlink" x="0px" y="0px"
	 viewBox="0 0 490 488.8" style="enable-background:new 0 0 490 488.8;" xml:space="preserve">
<style type="text/css">
	.st0{fill:#FFFFFF;}
</style>
<g>
	<g id="Capa_1_00000041270931951521419670000016633207513981160070_">
		<g>
			<path class="st0" d="M319,154.2c0,9.2-3.4,16.8-10.1,22.7c-6.7,6-16.4,9.6-29.1,11v20.6h-12.7v-20.1c-15.7-0.2-28.6-2.7-38.7-7.2
				v-20.1c5.5,2.7,11.8,4.9,19.1,6.7s13.8,2.7,19.6,2.8V135l-8-2.9c-10.4-4-18-8.8-22.8-14.3c-4.8-5.6-7.2-12.4-7.2-20.6
				c0-8.8,3.4-15.9,10.2-21.6s16.1-9.1,27.7-10.3v-16h12.7V65c12.9,0.4,25.1,3,36.6,7.8l-7,17.4c-10-3.9-19.9-6.3-29.7-7v34.6
				l7.2,2.8c12,4.6,20.4,9.5,25,14.6C316.7,140.5,319,146.8,319,154.2L319,154.2z M251.5,97.1c0,3.6,1.1,6.6,3.4,9s6.3,4.8,12.2,7.1
				V83.7c-5.1,0.8-8.9,2.3-11.6,4.7C252.8,90.7,251.5,93.6,251.5,97.1z M296.5,155.6c0-3.7-1.3-6.7-3.9-9.1
				c-2.6-2.4-6.9-4.7-12.9-6.9V170C290.9,168.3,296.5,163.5,296.5,155.6L296.5,155.6z"/>
			<path class="st0" d="M191.4,488.8h-64.7c-0.2,0-0.5,0-0.7-0.1c-6.2-2.9-9.3-8.1-11.2-14.6c-3.6-11.9-7.8-23.5-11.6-35.3
				c-0.9-2.7-2.3-4.6-4.7-6.3c-18.3-12.4-33.3-28-45.2-46.7c-1.4-2.3-3.2-3.7-5.7-4.7c-23.1-9.6-38.2-26.4-45-50.4
				c-1-3.6-1.8-7.2-2.6-10.8c0-0.1,0-0.2,0-0.3v-50.1c0-0.2,0-0.4,0.1-0.7c2.8-6,7.8-9.3,14.2-11.1c6.6-1.8,13-4.4,19.5-6.3
				c2.6-0.8,3.8-2.1,4.8-4.6c9.6-25.2,24.8-46.5,45.3-64c2.5-2.1,3.2-4.3,3.2-7.3c-0.1-24-0.1-48.1-0.1-72.1
				c0-11.3,5.7-16.9,17.2-16.6c14.8,0.4,28.8,4,42.3,10.6c0.8,0.4,1.8,0,2.1-0.8c0.3-0.7,0.5-1.4,0.7-2.2
				C167.7,30.5,229.2-8.7,295,1.7c70.6,11.1,120,82.3,105.5,152c-0.9,4.2-0.4,6.2,3.8,8.4c41.8,22.4,69,56.4,81.1,102.3
				c2,7.6,2.6,15.4,4.2,23.1c0.7,3.2,0.4,6.6,0.4,9.9c0,2.8,0,5.7,0,8.5c0,1.9,0.1,3.8,0,5.6c0,0.9,0,1.7-0.3,2.5
				c-0.2,0.9-0.5,1.8-0.6,2.6c-5.6,49.1-28.9,87.7-69.3,116.2c-2.1,1.5-3.4,3.1-4.2,5.5c-3.9,11.9-8.1,23.7-11.8,35.7
				c-2,6.5-5,11.6-11.2,14.6c-0.2,0.1-0.4,0.1-0.7,0.1h-64.4c-0.2,0-0.5,0-0.7-0.1c-8-3.8-11.2-10.3-10.2-19.1
				c0.2-1.6-0.2-3.2,0.1-4.8c0.5-3.7-0.8-4.8-4.6-4.8c-34.1,0.2-68.2,0.1-102.3,0.1c-7.9,0-8.3,0-7.8,8
				C202.6,477.4,200.5,484.8,191.4,488.8z M191.4,229.5c-0.3-0.4-0.5-0.9-0.8-1.1c-29.2-25.4-44.7-57.3-46-96
				c-0.1-2.3-1.1-3.4-2.8-4.5c-6.7-4.4-13.9-7.7-21.6-9.9c-3.8-1.1-4.5-0.2-4.5,3.6c0.2,21-0.1,42,0.2,63c0.1,6.6-2.3,11.5-7.6,15.5
				C86.6,217,71,238.2,62.9,264.7c-1.7,5.6-5.3,9.3-10.9,11.1c-6.7,2.1-13.2,4.6-20,6.6c-2.6,0.8-3.5,1.9-3.5,4.6
				c0.2,8.1,0,16.2,0.1,24.4c0.2,21.2,13.4,38.8,33.6,44.8c5.4,1.6,9.2,4.5,12,9.3c10.9,19.2,25.8,34.6,44.6,46.4
				c4.7,3,7.8,6.7,9.5,12c3.5,11.1,7.4,22,10.9,33c0.8,2.5,1.9,3.6,4.7,3.5c5.4-0.2,10.8,0,16.3-0.1c4.1,0,9.6,1.4,12-0.7
				c2.8-2.4,0.6-8.1,1-12.3c0-0.3,0-0.6,0-1c0.2-8.6,6.2-14.6,14.9-14.6c47.5-0.1,95.1-0.1,142.6,0c8.7,0,14.5,6.1,14.7,14.9
				c0.1,3.3,0.2,6.7,0,10c-0.2,2.8,0.6,3.9,3.7,3.8c8.6-0.2,17.2-0.2,25.8,0c2.5,0,3.6-0.8,4.4-3.2c3.2-10,7-19.8,9.8-29.9
				c2.2-7.7,6.6-12.7,13.2-17.2c35.9-24.3,56.7-58.3,58.5-101.6c2.3-53.1-21.9-92.8-67.5-119.8c-2.9-1.7-4.1-1.4-5.7,1.6
				c-7.4,14.3-17.5,26.5-29.6,37.1l0,0c-1.1,0.9-0.5,2.7,0.9,2.7c0.5,0,1.1,0,1.6,0c7.8,0.5,13.8,6.9,13.7,14.5
				c-0.1,7.4-6,14-13.5,14.1c-57.9,0.1-115.8,0.1-173.7,0c-7.8,0-13.8-6.8-13.7-14.4c0.1-7.4,5.9-13.5,13.5-14.2
				C188.3,229.9,189.9,230.4,191.4,229.5L191.4,229.5z M173.2,129.4c-0.1,55.2,44.8,100.4,100,100.6c55.4,0.2,100.7-44.6,100.9-99.7
				c0.3-55.9-44.7-101.6-100-101.8C218.7,28.3,173.4,73.6,173.2,129.4L173.2,129.4z"/>
			<path class="st0" d="M144.5,273.2c-0.1,7.7-6.6,14.2-14.4,14.1c-7.9,0-14.5-6.8-14.3-14.7c0.2-7.7,6.9-14.1,14.6-13.9
				C138.2,258.8,144.6,265.4,144.5,273.2L144.5,273.2z"/>
		</g>
	</g>
</g>
</svg>
