<?xml version="1.0" encoding="utf-8"?>
<!-- Generator: Adobe Illustrator 27.0.1, SVG Export Plug-In . SVG Version: 6.00 Build 0)  -->
<svg version="1.1" id="Capa_1" xmlns="http://www.w3.org/2000/svg" xmlns:xlink="http://www.w3.org/1999/xlink" x="0px" y="0px"
	 viewBox="0 0 648.5 488.8" style="enable-background:new 0 0 648.5 488.8;" xml:space="preserve">
<style type="text/css">
	.st0{fill:#FFFFFF;}
</style>
<path class="st0" d="M621.7,5l-20,12.2c-22.8,13.8-48.7,29.5-73,45.4c-10.9,7.1-20.6,8.7-33.8,5.5l-1.5-0.3
	c-40-9.7-81.3-19.7-119.6,10.1c-0.2-0.3-0.4-0.7-0.5-0.9c-0.1-0.2-0.2-0.4-0.3-0.5c-7.9-15.6-17-24.7-28-27.8
	c-11.1-3.2-24.1-0.1-39.5,9.4l-49.3,30.2c-7.4-20.5-18-33.4-31.5-38.4c-14.5-5.4-32.4-1.6-53.1,11.2l-20.3,12.6
	c-18.4,11.4-35,21.7-51.8,31.6c-25.1,14.9-41.3,36.4-48.2,63.9c-0.8,3.4-1.9,6.7-2.9,10l-0.1,0.2c-1.9,6.2-3.9,12.6-4.8,19.3
	c-2.4,18.7-12,31.4-29.3,38.9C4.5,241.7,0,248.9,0,260.3l0,0.3c0.3,43.6,0.3,86.6,0.4,134.2l0,1.1c0,24.2,0,48.3,0.1,72.5
	c0,6.6,0.8,15.7,7,19.2c1.6,0.9,3.3,1.3,5.3,1.3c5.2,0,10.7-3,14.5-5.2c27.8-17,59.3-36.2,89.6-55.1c23.7-14.8,48.9-25.5,75.2-32.1
	c10-2.5,20.3-5.1,30.5-7.8c4.9-1.3,8.5-3.8,10.5-7.2c1.1-1.9,1.6-4,1.6-6.3c0-1.4-0.2-2.9-0.6-4.4c-1.3-4.9-5.5-12.7-18.8-9.7
	c-37.7,8.8-77.4,20-113,42.9c-18.1,11.6-36.7,22.9-54.8,33.9l-14.9,9.1c-0.6,0.4-1.3,0.9-1.9,1.3l-0.2,0.1c-1.3,1-2,1.6-3.2,1.3
	l0.4-42.2c0.4-43.3,0.9-88.1,0.9-132.6l0-2.2c0-9.3,2.5-13.7,9.4-16.6c16.9-7,26.8-20.1,30.3-40c1.8-10.2,4.9-20.6,7.8-30.5
	c1.1-3.8,2.4-8.2,3.6-12.6c4.8-17.5,14.9-31.1,30.1-40.5l21.9-13.6c21.9-13.6,41.7-25.8,61.8-38c7.2-4.4,14.4-5.9,20.3-4.4
	c4.6,1.2,8.4,4.2,11,8.8c1.9,3.2,2.8,6.5,2.8,9.6c0,8.9-7.4,15.4-13.7,19.2l-11.7,7.3c-21.3,13.2-43.2,26.9-65.1,39.9
	c-8.3,4.9-12.1,10.4-12.1,17.6c0,2.8,0.6,5.8,1.7,9.3c2,6.2,3.1,12.1,3.1,17.6c0,12.3-5.2,22.9-15.5,31.3c-5.4,4.4-8.1,8.9-8.1,13.3
	c0,2.8,1.1,5.7,3.3,8.4c2.7,3.4,5.8,5.3,9.4,5.7c5.7,0.5,10.5-2.8,14.1-5.9c16.5-13.9,25.2-31.9,25.2-52.2c0-4.5-0.4-9.1-1.3-13.8
	c-0.3-1.6-0.4-3-0.4-4.2c0-4.3,1.8-6.9,7.3-10.2c32.4-19.6,64.5-39.3,95.6-58.5l43.7-26.9c7.7-4.8,15.7-9.8,23.7-14.4
	c7.5-4.3,13.3-3.2,17.3,3.2c1,1.5,2.2,3.9,2.2,6.6c0,3.6-2.3,7.1-6.9,10.4c-1.8,1.3-3.9,2.5-5.8,3.7l-0.8,0.5l-26.1,16
	c-22.8,13.9-41.7,25.6-61.3,37.8c-0.9,0.5-1.8,1.1-2.8,1.6l-0.3,0.2c-4.8,2.7-10.3,5.7-11.7,11.5c-0.2,0.9-0.3,1.8-0.3,2.7
	c0,2.8,1,5.7,2.9,8.7c3.4,5.2,7.6,7.5,12.7,6.7c3.9-0.6,7.4-2.8,10.7-4.9l0.5-0.3c0.9-0.6,1.7-1.1,2.6-1.6c3.9-2.2,7.8-4.5,12.2-7.2
	l1.2-0.7c1.9,13.4,8.5,24.3,20.2,33.3c-4.8,3-9.6,5.9-14.3,8.7c-12.8,7.8-27.3,16.7-41.2,25.6c-11.9,7.7-19.4,18.4-20.9,30.3
	c-0.2,1.5-0.3,3.1-0.3,4.7c0,10.3,4.3,20.4,12.3,29.3c1.6,1.8,2.3,2.7,2.3,3.8c0,1-0.6,2.1-1.6,3.9c-4.2,7.4-6.4,15.4-6.4,23.2
	c0,7.2,1.9,14,5.5,19.9c7.4,12.2,21.4,19,37.3,18.3c5.8-0.3,6.8,0.3,8.7,5.3c4.4,11.8,12.7,20.5,23.2,24.6
	c10.8,4.2,23.1,3.1,34.8-2.9c4.8-2.5,9.4-5.4,13.2-8c0.6-0.4,1.1-0.7,1.5-1c0.2-0.1,0.4-0.3,0.6-0.3c0.1,0.3,0.3,0.8,0.5,1.5
	c3.1,12,11.1,21.1,22.6,25.5c13.6,5.2,30.3,3.1,43.6-5.7c34.6-22.9,70.9-44.5,102.2-63c38.3-22.6,67.2-45.9,91-73.3
	c8.1-9.3,18.2-17.2,27.9-24.9l2.1-1.7c7.2-5.7,10.3-11.7,10.3-20.2v-0.1c-0.2-39.1-0.2-78.9-0.2-117.3c0,0,0-0.1,0-0.1l0-1.3
	c0-30.1-0.1-61.2-0.2-91.8c0-6.2-0.8-14.9-7-18.3C634.9-2.1,627,1.8,621.7,5z M620.2,47.3l0,4.6c-0.1,7.8-0.2,15.1-0.2,22.5
	l-0.1,33.1c0,17.9-0.1,36.5-0.1,54.9c0,20.9,0.1,39,0.2,55.6l0,0.4c0,8.2-2.3,12.9-8.3,16.8c-6.3,4.2-11.4,8.7-15.3,13.4
	c-35.3,43.2-83,71.6-129.2,99.1l-0.1,0.1c-19,11.3-38.1,23.2-56.5,34.6l-12.2,7.6c-10,6.2-15.8,5.8-20.9-1.5c-1.3-1.9-2-3.9-2-5.8
	c0-0.6,0.1-1.1,0.2-1.7c0.8-3.9,4.3-8,10-11.5c0,0,0.1-0.1,0.1-0.1c7.4-4.7,15-9.3,22.4-13.8l1.7-1c7.1-4.4,14.7-9,22.3-13.7
	l1.5-0.9c4.6-2.8,9.8-6,11.1-11.6c0.2-0.8,0.3-1.6,0.3-2.4c0-2.7-1-5.5-2.9-8.4c-2.9-4.5-6.5-6.7-10.7-6.8c-4.9,0-9.6,2.9-13,5.1
	l-1.7,1.1c-18,11-37.1,22.8-62.2,38.2l-28.2,17.4c-1.5,1-3.1,2-4.8,2.8c-11.5,5.8-15.9,1.8-18.7-2.9c-0.7-1.1-2.1-3.5-2.1-6.4
	c0-4.1,2.7-7.9,8.1-11.2c12.5-7.8,25.2-15.6,37.5-23.1l24.1-14.8c12.4-7.6,24.8-15.2,37.2-22.9c5.2-3.2,8.2-6.7,9.1-10.8
	c0.2-0.9,0.3-1.8,0.3-2.7c0-2.5-0.8-5.2-2.5-7.8c-3.4-5.5-10-10.5-22-3c-36.1,22.3-73,45-112.8,69.4l-1.9,1.2
	c-3.2,2-6.2,3.9-9.4,5.1c-6.6,2.6-11.5,0.9-15-5.1c-1.2-2-1.8-4-1.8-5.9c0-3.1,1.6-6,4.7-8.8c2.6-2.2,5.6-4,8.8-5.9l3.2-1.9
	c23.8-14.7,47.6-29.4,71.5-44l37.2-22.9c4.9-3,10.5-6.4,11.8-12.3c0.2-0.8,0.2-1.5,0.2-2.3c0-2.8-1-5.6-3-8.6
	c-7.6-11.1-17.5-4.9-23.4-1.3L311.1,258c-15,9.2-29.9,18.4-44.8,27.6c-10.7,6.6-15.6,1.6-18.4-2.6c-1-1.5-2.3-3.9-2.3-6.6
	c0-3.8,2.6-7.5,7.9-11.3c1.4-1,2.8-1.9,4.2-2.7l157.2-96.8c4.5-2.8,10.2-6.3,11.5-12.1c0.2-0.8,0.3-1.6,0.3-2.4
	c0-2.6-0.9-5.3-2.7-8.1c-7.6-11.8-18.1-5.3-24.4-1.4l-30.9,19.1c-10.8,6.7-22,13.6-33,20.3c-13,7.9-24.2,6.8-30.8-3.1
	c-2.3-3.4-3.4-6.9-3.4-10.5c0-1.2,0.1-2.3,0.4-3.5c1.3-6,5.8-11.6,13-16.1c32.8-20.5,59.7-37.1,84.9-52.2
	c14.5-8.7,29.9-11.6,45.7-8.4c4.2,0.8,8.6,1.5,12.9,2.1c8.5,1.3,16.5,2.4,24,5.2c23.5,8.7,45,4.8,69.5-12.6
	c15.8-11.1,32.4-21,50-31.5c5.5-3.3,11.9-7.1,18.5-11.1L620.2,47.3z"/>
</svg>
